<svg class="railroad-diagram" height="80" viewBox="0 0 320.5 80" width="320.5" xmlns="http://www.w3.org/2000/svg" xmlns:xlink="http://www.w3.org/1999/xlink">
<g transform="translate(.5 .5)">
<g>
<path d="M20 30v20m10 -20v20m-10 -10h20" /></g><path d="M40 40h10" /><g>
<path d="M50 40h0.0" /><path d="M270.5 40h0.0" /><g class="terminal ">
<path d="M50.0 40h0.0" /><path d="M87.0 40h0.0" /><rect height="22" rx="10" ry="10" width="37" x="50" y="29"></rect><text x="68.5" y="44">//</text></g><path d="M87.0 40h10" /><g>
<path d="M97.0 40h0.0" /><path d="M270.5 40h0.0" /><path d="M97.0 40a10 10 0 0 0 10 -10v0a10 10 0 0 1 10 -10" /><g>
<path d="M117.0 20h133.5" /></g><path d="M250.5 20a10 10 0 0 1 10 10v0a10 10 0 0 0 10 10" /><path d="M97.0 40h20" /><g>
<path d="M117.0 40h0.0" /><path d="M250.5 40h0.0" /><path d="M117.0 40h10" /><g class="non-terminal ">
<path d="M127.0 40h0.0" /><path d="M240.5 40h0.0" /><rect height="22" width="113.5" x="127" y="29"></rect><text x="183.75" y="44">CommentChar</text></g><path d="M240.5 40h10" /><path d="M127.0 40a10 10 0 0 0 -10 10v0a10 10 0 0 0 10 10" /><g>
<path d="M127.0 60h113.5" /></g><path d="M240.5 60a10 10 0 0 0 10 -10v0a10 10 0 0 0 -10 -10" /></g><path d="M250.5 40h20" /></g></g><path d="M270.5 40h10" /><path d="M 280.5 40 h 20 m -10 -10 v 20 m 10 -20 v 20"></path></g><style>/* <![CDATA[ */

svg.railroad-diagram { background-color: #ffffff; }
svg.railroad-diagram path { stroke-width: 1.4; stroke: #000; fill: none; }
svg.railroad-diagram text { font: 14px Consolas, 'DejaVu Sans Mono', monospace; text-anchor: middle; white-space: pre; fill: #000; }
svg.railroad-diagram text.comment { font: italic 12px Consolas, monospace; }
svg.railroad-diagram rect { stroke-width: 1.4; stroke: #000; fill: #fff; }
svg.railroad-diagram g.non-terminal text { font-style: italic; }

/* ]]> */
</style></svg>