<svg class="railroad-diagram" height="92" viewBox="0 0 391.5 92" width="391.5" xmlns="http://www.w3.org/2000/svg" xmlns:xlink="http://www.w3.org/1999/xlink">
<g transform="translate(.5 .5)">
<g>
<path d="M20 21v20m10 -20v20m-10 -10h20" /></g><path d="M40 31h10" /><g>
<path d="M50 31h0.0" /><path d="M341.5 31h0.0" /><g class="terminal ">
<path d="M50.0 31h0.0" /><path d="M104.0 31h0.0" /><rect height="22" rx="10" ry="10" width="54" x="50" y="20"></rect><text x="77" y="35">type</text></g><path d="M104.0 31h10" /><path d="M114.0 31h10" /><g class="non-terminal ">
<path d="M124.0 31h0.0" /><path d="M186.5 31h0.0" /><rect height="22" width="62.5" x="124" y="20"></rect><text x="155.25" y="35">Ident</text></g><path d="M186.5 31h10" /><g>
<path d="M196.5 31h0.0" /><path d="M341.5 31h0.0" /><path d="M196.5 31h20" /><g class="non-terminal ">
<path d="M216.5 31h25.5" /><path d="M296.0 31h25.5" /><rect height="22" width="54" x="242" y="20"></rect><text x="269" y="35">Type</text></g><path d="M321.5 31h20" /><path d="M196.5 31a10 10 0 0 1 10 10v10a10 10 0 0 0 10 10" /><g class="non-terminal ">
<path d="M216.5 61h0.0" /><path d="M321.5 61h0.0" /><rect height="22" width="105" x="216.5" y="50"></rect><text x="269" y="65">StructType</text></g><path d="M321.5 61a10 10 0 0 0 10 -10v-10a10 10 0 0 1 10 -10" /></g></g><path d="M341.5 31h10" /><path d="M 351.5 31 h 20 m -10 -10 v 20 m 10 -20 v 20"></path></g><style>/* <![CDATA[ */

svg.railroad-diagram { background-color: #ffffff; }
svg.railroad-diagram path { stroke-width: 1.4; stroke: #000; fill: none; }
svg.railroad-diagram text { font: 14px Consolas, 'DejaVu Sans Mono', monospace; text-anchor: middle; white-space: pre; fill: #000; }
svg.railroad-diagram text.comment { font: italic 12px Consolas, monospace; }
svg.railroad-diagram rect { stroke-width: 1.4; stroke: #000; fill: #fff; }
svg.railroad-diagram g.non-terminal text { font-style: italic; }

/* ]]> */
</style></svg>