<svg class="railroad-diagram" height="212" viewBox="0 0 208.0 212" width="208.0" xmlns="http://www.w3.org/2000/svg" xmlns:xlink="http://www.w3.org/1999/xlink">
<g transform="translate(.5 .5)">
<g>
<path d="M20 21v20m10 -20v20m-10 -10h20" /></g><g>
<path d="M40 31h0.0" /><path d="M168.0 31h0.0" /><path d="M40.0 31h20" /><g class="non-terminal ">
<path d="M60.0 31h4.25" /><path d="M143.75 31h4.25" /><rect height="22" width="79.5" x="64.25" y="20"></rect><text x="104" y="35">ArithOp</text></g><path d="M148.0 31h20" /><path d="M40.0 31a10 10 0 0 1 10 10v10a10 10 0 0 0 10 10" /><g class="non-terminal ">
<path d="M60.0 61h12.75" /><path d="M135.25 61h12.75" /><rect height="22" width="62.5" x="72.75" y="50"></rect><text x="104" y="65">RelOp</text></g><path d="M148.0 61a10 10 0 0 0 10 -10v-10a10 10 0 0 1 10 -10" /><path d="M40.0 31a10 10 0 0 1 10 10v40a10 10 0 0 0 10 10" /><g class="non-terminal ">
<path d="M60.0 91h4.25" /><path d="M143.75 91h4.25" /><rect height="22" width="79.5" x="64.25" y="80"></rect><text x="104" y="95">LogicOp</text></g><path d="M148.0 91a10 10 0 0 0 10 -10v-40a10 10 0 0 1 10 -10" /><path d="M40.0 31a10 10 0 0 1 10 10v70a10 10 0 0 0 10 10" /><g class="non-terminal ">
<path d="M60.0 121h0.0" /><path d="M148.0 121h0.0" /><rect height="22" width="88" x="60" y="110"></rect><text x="104" y="125">AssignOp</text></g><path d="M148.0 121a10 10 0 0 0 10 -10v-70a10 10 0 0 1 10 -10" /><path d="M40.0 31a10 10 0 0 1 10 10v100a10 10 0 0 0 10 10" /><g class="non-terminal ">
<path d="M60.0 151h0.0" /><path d="M148.0 151h0.0" /><rect height="22" width="88" x="60" y="140"></rect><text x="104" y="155">IncDecOp</text></g><path d="M148.0 151a10 10 0 0 0 10 -10v-100a10 10 0 0 1 10 -10" /><path d="M40.0 31a10 10 0 0 1 10 10v130a10 10 0 0 0 10 10" /><g class="terminal ">
<path d="M60.0 181h29.75" /><path d="M118.25 181h29.75" /><rect height="22" rx="10" ry="10" width="28.5" x="89.75" y="170"></rect><text x="104" y="185">&amp;</text></g><path d="M148.0 181a10 10 0 0 0 10 -10v-130a10 10 0 0 1 10 -10" /></g><path d="M 168.0 31 h 20 m -10 -10 v 20 m 10 -20 v 20"></path></g><style>/* <![CDATA[ */

svg.railroad-diagram { background-color: #ffffff; }
svg.railroad-diagram path { stroke-width: 1.4; stroke: #000; fill: none; }
svg.railroad-diagram text { font: 14px Consolas, 'DejaVu Sans Mono', monospace; text-anchor: middle; white-space: pre; fill: #000; }
svg.railroad-diagram text.comment { font: italic 12px Consolas, monospace; }
svg.railroad-diagram rect { stroke-width: 1.4; stroke: #000; fill: #fff; }
svg.railroad-diagram g.non-terminal text { font-style: italic; }

/* ]]> */
</style></svg>